<?xml version="1.0" standalone="no"?><svg xmlns="http://www.w3.org/2000/svg" viewBox="0 0 1440 320"><path fill="#F3274C" fill-opacity="0.9" d="M0,320L21.8,288C43.6,256,87,192,131,192C174.5,192,218,256,262,266.7C305.5,277,349,235,393,202.7C436.4,171,480,149,524,165.3C567.3,181,611,235,655,240C698.2,245,742,203,785,208C829.1,213,873,267,916,272C960,277,1004,235,1047,213.3C1090.9,192,1135,192,1178,197.3C1221.8,203,1265,213,1309,224C1352.7,235,1396,245,1418,250.7L1440,256L1440,0L1418.2,0C1396.4,0,1353,0,1309,0C1265.5,0,1222,0,1178,0C1134.5,0,1091,0,1047,0C1003.6,0,960,0,916,0C872.7,0,829,0,785,0C741.8,0,698,0,655,0C610.9,0,567,0,524,0C480,0,436,0,393,0C349.1,0,305,0,262,0C218.2,0,175,0,131,0C87.3,0,44,0,22,0L0,0Z"></path></svg>